<?xml version="1.0" encoding="UTF-8"?>
<svg width="1200pt" height="1200pt" version="1.1" viewBox="0 0 1200 1200" xmlns="http://www.w3.org/2000/svg">
 <path d="m529.2 441.6c-30-18-69.602 3.6016-69.602 39.602v318c0 36 38.398 57.602 69.602 39.602l262.8-158.4c28.801-18 28.801-60 0-78z"/>
 <path d="m1053.6 362.4c-19.199-30-58.801-40.801-88.801-21.602-31.199 19.199-40.801 58.801-21.602 91.199 43.199 70.801 64.801 157.2 56.398 248.4-19.199 193.2-177.6 346.8-372 360-235.2 15.602-430.8-171.6-428.4-404.4 2.3984-216 178.8-393.6 393.6-397.2 12 0 22.801 0 34.801 1.1992v50.398c0 20.398 22.801 32.398 39.602 21.602l187.2-116.4c15.602-9.6016 15.602-33.602 0-43.199l-188.4-118.8c-16.801-10.801-39.602 1.1992-39.602 21.602v52.801c-8.3984-0.003906-16.797-0.003906-26.398-0.003906-306 0-553.2 260.4-529.2 571.2 19.199 260.4 229.2 470.4 488.4 489.6 310.8 22.801 572.4-223.2 572.4-529.2 0.003906-102-28.797-196.8-77.996-277.2z"/>
</svg>
