<?xml version="1.0" encoding="utf-8"?><!DOCTYPE svg PUBLIC "-//W3C//DTD SVG 1.1//EN" "http://www.w3.org/Graphics/SVG/1.1/DTD/svg11.dtd"><svg version="1.1" xmlns:inkscape="http://www.inkscape.org/namespaces/inkscape" xmlns:sodipodi="http://sodipodi.sourceforge.net/DTD/sodipodi-0.dtd" xmlns:dc="http://purl.org/dc/elements/1.1/" xmlns:svg="http://www.w3.org/2000/svg" xmlns:cc="http://creativecommons.org/ns#" xmlns:rdf="http://www.w3.org/1999/02/22-rdf-syntax-ns#" xmlns="http://www.w3.org/2000/svg" xmlns:xlink="http://www.w3.org/1999/xlink" x="0px" y="0px" viewBox="4.556 0 90.889 100" enable-background="new 4.556 0 90.889 100" xml:space="preserve"><path d="M44.166,64.814c-2.928,3.32-6.117,2.474-8.33,0.521
	c-2.213-1.952-3.449-5.011-0.521-8.33L82.169,3.905L77.744,0L30.891,53.102c-4.33,4.907-3.796,10.473-0.949,14.454L11.626,88.314
	c-1.999-0.401-4.149,0.243-5.595,1.881c-2.156,2.442-1.923,6.174,0.521,8.329c2.444,2.156,6.174,1.922,8.33-0.521
	c1.445-1.638,1.816-3.853,1.169-5.786L34.368,71.46c4.303,2.329,9.893,2.166,14.223-2.739l46.854-53.103l-4.426-3.904L44.166,64.814
	L44.166,64.814z"></path></svg>